<mxfile host="Electron" agent="Mozilla/5.0 (X11; Linux x86_64) AppleWebKit/537.36 (KHTML, like Gecko) draw.io/26.0.4 Chrome/128.0.6613.186 Electron/32.2.5 Safari/537.36" version="26.0.4">
  <diagram name="Page-1" id="Jp46yk0V9ckQmUTIP-U4">
    <mxGraphModel dx="1114" dy="1198" grid="1" gridSize="10" guides="1" tooltips="1" connect="1" arrows="1" fold="1" page="1" pageScale="1" pageWidth="850" pageHeight="1100" math="0" shadow="0">
      <root>
        <mxCell id="0" />
        <mxCell id="1" parent="0" />
        <mxCell id="kCDVj3NChmGF03AyStL5-13" value="Option 1" style="rounded=0;whiteSpace=wrap;html=1;fillColor=none;verticalAlign=top;fontStyle=1;fontSize=14;" vertex="1" parent="1">
          <mxGeometry x="25" y="330" width="326" height="440" as="geometry" />
        </mxCell>
        <mxCell id="kCDVj3NChmGF03AyStL5-8" style="edgeStyle=orthogonalEdgeStyle;rounded=0;orthogonalLoop=1;jettySize=auto;html=1;" edge="1" parent="1" source="kCDVj3NChmGF03AyStL5-1" target="kCDVj3NChmGF03AyStL5-6">
          <mxGeometry relative="1" as="geometry" />
        </mxCell>
        <mxCell id="kCDVj3NChmGF03AyStL5-11" value="&amp;nbsp;PUT #2&amp;nbsp;" style="edgeLabel;html=1;align=center;verticalAlign=middle;resizable=0;points=[];" vertex="1" connectable="0" parent="kCDVj3NChmGF03AyStL5-8">
          <mxGeometry x="0.394" y="-2" relative="1" as="geometry">
            <mxPoint y="-2" as="offset" />
          </mxGeometry>
        </mxCell>
        <mxCell id="kCDVj3NChmGF03AyStL5-1" value="SDK" style="sketch=0;outlineConnect=0;fontColor=#232F3E;gradientColor=none;fillColor=#232F3D;strokeColor=none;dashed=0;verticalLabelPosition=bottom;verticalAlign=top;align=center;html=1;fontSize=12;fontStyle=0;aspect=fixed;pointerEvents=1;shape=mxgraph.aws4.external_sdk;" vertex="1" parent="1">
          <mxGeometry x="51" y="520" width="68" height="78" as="geometry" />
        </mxCell>
        <mxCell id="kCDVj3NChmGF03AyStL5-3" value="SQS" style="sketch=0;points=[[0,0,0],[0.25,0,0],[0.5,0,0],[0.75,0,0],[1,0,0],[0,1,0],[0.25,1,0],[0.5,1,0],[0.75,1,0],[1,1,0],[0,0.25,0],[0,0.5,0],[0,0.75,0],[1,0.25,0],[1,0.5,0],[1,0.75,0]];outlineConnect=0;fontColor=#232F3E;fillColor=#E7157B;strokeColor=#ffffff;dashed=0;verticalLabelPosition=top;verticalAlign=bottom;align=center;html=1;fontSize=12;fontStyle=0;aspect=fixed;shape=mxgraph.aws4.resourceIcon;resIcon=mxgraph.aws4.sqs;labelPosition=center;" vertex="1" parent="1">
          <mxGeometry x="241" y="370" width="78" height="78" as="geometry" />
        </mxCell>
        <mxCell id="kCDVj3NChmGF03AyStL5-5" value="&amp;nbsp;PUT #1&amp;nbsp;" style="edgeStyle=orthogonalEdgeStyle;rounded=0;orthogonalLoop=1;jettySize=auto;html=1;entryX=0;entryY=0.5;entryDx=0;entryDy=0;entryPerimeter=0;" edge="1" parent="1" source="kCDVj3NChmGF03AyStL5-1" target="kCDVj3NChmGF03AyStL5-3">
          <mxGeometry x="0.7163" relative="1" as="geometry">
            <Array as="points">
              <mxPoint x="171" y="559" />
              <mxPoint x="171" y="409" />
            </Array>
            <mxPoint as="offset" />
          </mxGeometry>
        </mxCell>
        <mxCell id="kCDVj3NChmGF03AyStL5-6" value="SQS" style="sketch=0;points=[[0,0,0],[0.25,0,0],[0.5,0,0],[0.75,0,0],[1,0,0],[0,1,0],[0.25,1,0],[0.5,1,0],[0.75,1,0],[1,1,0],[0,0.25,0],[0,0.5,0],[0,0.75,0],[1,0.25,0],[1,0.5,0],[1,0.75,0]];outlineConnect=0;fontColor=#232F3E;fillColor=#E7157B;strokeColor=#ffffff;dashed=0;verticalLabelPosition=top;verticalAlign=bottom;align=center;html=1;fontSize=12;fontStyle=0;aspect=fixed;shape=mxgraph.aws4.resourceIcon;resIcon=mxgraph.aws4.sqs;labelPosition=center;" vertex="1" parent="1">
          <mxGeometry x="241" y="520" width="78" height="78" as="geometry" />
        </mxCell>
        <mxCell id="kCDVj3NChmGF03AyStL5-7" value="SQS" style="sketch=0;points=[[0,0,0],[0.25,0,0],[0.5,0,0],[0.75,0,0],[1,0,0],[0,1,0],[0.25,1,0],[0.5,1,0],[0.75,1,0],[1,1,0],[0,0.25,0],[0,0.5,0],[0,0.75,0],[1,0.25,0],[1,0.5,0],[1,0.75,0]];outlineConnect=0;fontColor=#232F3E;fillColor=#E7157B;strokeColor=#ffffff;dashed=0;verticalLabelPosition=top;verticalAlign=bottom;align=center;html=1;fontSize=12;fontStyle=0;aspect=fixed;shape=mxgraph.aws4.resourceIcon;resIcon=mxgraph.aws4.sqs;labelPosition=center;" vertex="1" parent="1">
          <mxGeometry x="247" y="670" width="78" height="78" as="geometry" />
        </mxCell>
        <mxCell id="kCDVj3NChmGF03AyStL5-9" style="edgeStyle=orthogonalEdgeStyle;rounded=0;orthogonalLoop=1;jettySize=auto;html=1;entryX=0;entryY=0.5;entryDx=0;entryDy=0;entryPerimeter=0;" edge="1" parent="1" source="kCDVj3NChmGF03AyStL5-1" target="kCDVj3NChmGF03AyStL5-7">
          <mxGeometry relative="1" as="geometry">
            <Array as="points">
              <mxPoint x="171" y="559" />
              <mxPoint x="171" y="709" />
            </Array>
          </mxGeometry>
        </mxCell>
        <mxCell id="kCDVj3NChmGF03AyStL5-10" value="&amp;nbsp;PUT #3&amp;nbsp;" style="edgeLabel;html=1;align=center;verticalAlign=middle;resizable=0;points=[];" vertex="1" connectable="0" parent="kCDVj3NChmGF03AyStL5-9">
          <mxGeometry x="0.6528" y="-1" relative="1" as="geometry">
            <mxPoint x="4" y="-1" as="offset" />
          </mxGeometry>
        </mxCell>
        <mxCell id="kCDVj3NChmGF03AyStL5-14" value="Option 2 - Fan Out" style="rounded=0;whiteSpace=wrap;html=1;fillColor=none;verticalAlign=top;fontStyle=1;fontSize=14;" vertex="1" parent="1">
          <mxGeometry x="371" y="330" width="454" height="440" as="geometry" />
        </mxCell>
        <mxCell id="kCDVj3NChmGF03AyStL5-25" value="&amp;nbsp;PUT&amp;nbsp;" style="edgeStyle=orthogonalEdgeStyle;rounded=0;orthogonalLoop=1;jettySize=auto;html=1;" edge="1" parent="1" source="kCDVj3NChmGF03AyStL5-17" target="kCDVj3NChmGF03AyStL5-24">
          <mxGeometry relative="1" as="geometry" />
        </mxCell>
        <mxCell id="kCDVj3NChmGF03AyStL5-17" value="SDK" style="sketch=0;outlineConnect=0;fontColor=#232F3E;gradientColor=none;fillColor=#232F3D;strokeColor=none;dashed=0;verticalLabelPosition=bottom;verticalAlign=top;align=center;html=1;fontSize=12;fontStyle=0;aspect=fixed;pointerEvents=1;shape=mxgraph.aws4.external_sdk;" vertex="1" parent="1">
          <mxGeometry x="386" y="520" width="68" height="78" as="geometry" />
        </mxCell>
        <mxCell id="kCDVj3NChmGF03AyStL5-18" value="SQS" style="sketch=0;points=[[0,0,0],[0.25,0,0],[0.5,0,0],[0.75,0,0],[1,0,0],[0,1,0],[0.25,1,0],[0.5,1,0],[0.75,1,0],[1,1,0],[0,0.25,0],[0,0.5,0],[0,0.75,0],[1,0.25,0],[1,0.5,0],[1,0.75,0]];outlineConnect=0;fontColor=#232F3E;fillColor=#E7157B;strokeColor=#ffffff;dashed=0;verticalLabelPosition=top;verticalAlign=bottom;align=center;html=1;fontSize=12;fontStyle=0;aspect=fixed;shape=mxgraph.aws4.resourceIcon;resIcon=mxgraph.aws4.sqs;labelPosition=center;" vertex="1" parent="1">
          <mxGeometry x="725" y="370" width="78" height="78" as="geometry" />
        </mxCell>
        <mxCell id="kCDVj3NChmGF03AyStL5-20" value="SQS" style="sketch=0;points=[[0,0,0],[0.25,0,0],[0.5,0,0],[0.75,0,0],[1,0,0],[0,1,0],[0.25,1,0],[0.5,1,0],[0.75,1,0],[1,1,0],[0,0.25,0],[0,0.5,0],[0,0.75,0],[1,0.25,0],[1,0.5,0],[1,0.75,0]];outlineConnect=0;fontColor=#232F3E;fillColor=#E7157B;strokeColor=#ffffff;dashed=0;verticalLabelPosition=top;verticalAlign=bottom;align=center;html=1;fontSize=12;fontStyle=0;aspect=fixed;shape=mxgraph.aws4.resourceIcon;resIcon=mxgraph.aws4.sqs;labelPosition=center;" vertex="1" parent="1">
          <mxGeometry x="725" y="520" width="78" height="78" as="geometry" />
        </mxCell>
        <mxCell id="kCDVj3NChmGF03AyStL5-21" value="SQS" style="sketch=0;points=[[0,0,0],[0.25,0,0],[0.5,0,0],[0.75,0,0],[1,0,0],[0,1,0],[0.25,1,0],[0.5,1,0],[0.75,1,0],[1,1,0],[0,0.25,0],[0,0.5,0],[0,0.75,0],[1,0.25,0],[1,0.5,0],[1,0.75,0]];outlineConnect=0;fontColor=#232F3E;fillColor=#E7157B;strokeColor=#ffffff;dashed=0;verticalLabelPosition=top;verticalAlign=bottom;align=center;html=1;fontSize=12;fontStyle=0;aspect=fixed;shape=mxgraph.aws4.resourceIcon;resIcon=mxgraph.aws4.sqs;labelPosition=center;" vertex="1" parent="1">
          <mxGeometry x="725" y="670" width="78" height="78" as="geometry" />
        </mxCell>
        <mxCell id="kCDVj3NChmGF03AyStL5-24" value="SNS" style="sketch=0;points=[[0,0,0],[0.25,0,0],[0.5,0,0],[0.75,0,0],[1,0,0],[0,1,0],[0.25,1,0],[0.5,1,0],[0.75,1,0],[1,1,0],[0,0.25,0],[0,0.5,0],[0,0.75,0],[1,0.25,0],[1,0.5,0],[1,0.75,0]];outlineConnect=0;fontColor=#232F3E;fillColor=#E7157B;strokeColor=#ffffff;dashed=0;verticalLabelPosition=bottom;verticalAlign=top;align=center;html=1;fontSize=12;fontStyle=0;aspect=fixed;shape=mxgraph.aws4.resourceIcon;resIcon=mxgraph.aws4.sns;" vertex="1" parent="1">
          <mxGeometry x="525" y="520" width="78" height="78" as="geometry" />
        </mxCell>
        <mxCell id="kCDVj3NChmGF03AyStL5-27" style="edgeStyle=orthogonalEdgeStyle;rounded=0;orthogonalLoop=1;jettySize=auto;html=1;entryX=0;entryY=0.5;entryDx=0;entryDy=0;entryPerimeter=0;" edge="1" parent="1" source="kCDVj3NChmGF03AyStL5-24" target="kCDVj3NChmGF03AyStL5-18">
          <mxGeometry relative="1" as="geometry">
            <Array as="points">
              <mxPoint x="665" y="559" />
              <mxPoint x="665" y="409" />
            </Array>
          </mxGeometry>
        </mxCell>
        <mxCell id="kCDVj3NChmGF03AyStL5-28" style="edgeStyle=orthogonalEdgeStyle;rounded=0;orthogonalLoop=1;jettySize=auto;html=1;entryX=0;entryY=0.5;entryDx=0;entryDy=0;entryPerimeter=0;" edge="1" parent="1" source="kCDVj3NChmGF03AyStL5-24" target="kCDVj3NChmGF03AyStL5-21">
          <mxGeometry relative="1" as="geometry">
            <Array as="points">
              <mxPoint x="665" y="559" />
              <mxPoint x="665" y="709" />
            </Array>
          </mxGeometry>
        </mxCell>
        <mxCell id="kCDVj3NChmGF03AyStL5-26" value="&amp;nbsp;SUBSCRIBE&amp;nbsp;" style="edgeStyle=orthogonalEdgeStyle;rounded=0;orthogonalLoop=1;jettySize=auto;html=1;" edge="1" parent="1" source="kCDVj3NChmGF03AyStL5-24" target="kCDVj3NChmGF03AyStL5-20">
          <mxGeometry x="0.0022" relative="1" as="geometry">
            <mxPoint as="offset" />
          </mxGeometry>
        </mxCell>
      </root>
    </mxGraphModel>
  </diagram>
</mxfile>
